<svg width="49" height="42" viewBox="0 0 49 42" fill="none" xmlns="http://www.w3.org/2000/svg">
<g clip-path="url(#clip0_202_130)">
<path d="M24.5 3.53503C35.7578 3.53503 44.9167 11.3855 44.9167 21.035C44.9167 30.6845 35.7578 38.535 24.5 38.535C13.2423 38.535 4.08333 30.6845 4.08333 21.035C4.08333 11.3855 13.2423 3.53503 24.5 3.53503V3.53503ZM24.5 0.0350342C10.9699 0.0350342 0 9.43779 0 21.035C0 32.6323 10.9699 42.035 24.5 42.035C38.0301 42.035 49 32.6323 49 21.035C49 9.43779 38.0301 0.0350342 24.5 0.0350342V0.0350342ZM24.5 21.9975L12.2663 14H36.7316L24.5 21.9975ZM24.5 24.2515L12.25 16.1508V28H36.75V16.1508L24.5 24.2515V24.2515Z" fill="white"/>
</g>
<defs>
<clipPath id="clip0_202_130">
<rect width="49" height="42" fill="white"/>
</clipPath>
</defs>
</svg>
