<svg width="44" height="44" viewBox="0 0 44 44" fill="none" xmlns="http://www.w3.org/2000/svg">
<path d="M22 3.66667C32.109 3.66667 40.3333 11.891 40.3333 22C40.3333 32.109 32.109 40.3333 22 40.3333C11.891 40.3333 3.66667 32.109 3.66667 22C3.66667 11.891 11.891 3.66667 22 3.66667ZM22 0C9.8505 0 0 9.8505 0 22C0 34.1495 9.8505 44 22 44C34.1495 44 44 34.1495 44 22C44 9.8505 34.1495 0 22 0ZM33.9167 16.093C33.1082 16.4523 32.2373 16.6943 31.3243 16.8043C32.2575 16.2452 32.9707 15.3615 33.3098 14.3073C32.4372 14.8243 31.471 15.2002 30.4425 15.4018C29.6212 14.5237 28.446 13.9755 27.1498 13.9755C24.2348 13.9755 22.0935 16.6943 22.7517 19.5177C19.0025 19.3288 15.675 17.5322 13.4493 14.8023C12.2668 16.83 12.837 19.4847 14.8463 20.8285C14.1075 20.8047 13.4127 20.6012 12.804 20.2638C12.7545 22.3538 14.2542 24.31 16.4248 24.7463C15.7905 24.9187 15.0938 24.959 14.3862 24.8233C14.96 26.6163 16.6302 27.9198 18.6028 27.9565C16.7017 29.4452 14.3128 30.1107 11.9167 29.8283C13.915 31.1098 16.2855 31.856 18.8338 31.856C27.2158 31.856 31.9495 24.7775 31.6635 18.4287C32.5472 17.7943 33.3117 16.9987 33.9167 16.093Z" fill="white"/>
</svg>
