<svg width="133" height="42" viewBox="0 0 133 42" fill="none" xmlns="http://www.w3.org/2000/svg">
<g filter="url(#filter0_d_160_78)">
<path d="M55.152 30V18.72H57.008L63.136 26.512H62.704V18.72H65.024V30H63.168L57.056 22.208H57.472V30H55.152ZM68.5723 24.352C68.5723 23.1787 68.7909 22.16 69.2283 21.296C69.6763 20.4213 70.3163 19.744 71.1483 19.264C71.9803 18.784 72.9669 18.544 74.1083 18.544C75.2496 18.544 76.2363 18.784 77.0683 19.264C77.9003 19.744 78.5403 20.4213 78.9883 21.296C79.4469 22.16 79.6763 23.1733 79.6763 24.336C79.6763 25.52 79.4469 26.5493 78.9883 27.424C78.5403 28.288 77.9003 28.9653 77.0683 29.456C76.2363 29.936 75.2496 30.176 74.1083 30.176C72.9669 30.176 71.9803 29.936 71.1483 29.456C70.3269 28.9653 69.6923 28.2827 69.2443 27.408C68.7963 26.5333 68.5723 25.5147 68.5723 24.352ZM71.1803 24.352C71.1803 25.5147 71.4203 26.4267 71.9003 27.088C72.3909 27.7387 73.1269 28.064 74.1083 28.064C75.0683 28.064 75.7989 27.7387 76.3003 27.088C76.8016 26.4267 77.0523 25.5147 77.0523 24.352C77.0523 23.1787 76.8016 22.272 76.3003 21.632C75.8096 20.9813 75.0789 20.656 74.1083 20.656C73.1269 20.656 72.3909 20.9813 71.9003 21.632C71.4203 22.272 71.1803 23.1787 71.1803 24.352ZM86.0981 30L82.0981 18.72H84.6741L87.5381 27.424H86.8501L89.9701 18.72H91.7941L94.6581 27.424H94.0181L97.0581 18.72H99.4741L95.4421 30H93.4101L90.6421 21.984H91.0101L88.1461 30H86.0981Z" fill="#EBB555"/>
<path d="M102.546 30V18.72H104.402L110.53 26.512H110.098V18.72H112.418V30H110.562L104.45 22.208H104.866V30H102.546ZM118.91 30V20.752H115.326V18.72H124.99V20.752H121.406V30H118.91Z" fill="#0E494F"/>
<path d="M101.394 25.2H125.198V25.904H101.394V25.2Z" fill="#0E494F"/>
</g>
<g clip-path="url(#clip0_160_78)">
<path d="M27.8425 23.345L32.4555 16.2995L31.661 15.589L25.2332 21.0122C24.052 20.7707 22.7797 21.1312 21.9187 22.0938C20.6307 23.534 20.755 25.7478 22.197 27.0358C23.639 28.3238 25.851 28.1995 27.139 26.7575C28 25.795 28.2152 24.4913 27.8425 23.345V23.345ZM21 4.7145V0H28V4.7145C25.4817 4.28925 23.464 4.298 21 4.7145ZM36.4892 8.3265L38.9515 5.86425L41.426 8.33875L39.1142 10.6505C38.3057 9.8035 37.4272 9.02825 36.4892 8.3265V8.3265ZM3.5 15.75H17.5V19.25H3.5V15.75ZM0 22.75H14V26.25H0V22.75ZM5.25 29.75H17.5V33.25H5.25V29.75ZM42 24.5C42 34.1652 34.1652 42 24.5 42C19.6175 42 15.225 39.9788 12.0557 36.75H17.7957C19.7872 37.8542 22.064 38.5 24.5 38.5C32.2192 38.5 38.5 32.2192 38.5 24.5C38.5 16.7808 32.2192 10.5 24.5 10.5C22.064 10.5 19.7872 11.1458 17.7957 12.25H12.0557C15.225 9.02125 19.6175 7 24.5 7C34.1652 7 42 14.8348 42 24.5Z" fill="#0E494F"/>
</g>
<defs>
<filter id="filter0_d_160_78" x="51.1523" y="18.544" width="77.8379" height="19.632" filterUnits="userSpaceOnUse" color-interpolation-filters="sRGB">
<feFlood flood-opacity="0" result="BackgroundImageFix"/>
<feColorMatrix in="SourceAlpha" type="matrix" values="0 0 0 0 0 0 0 0 0 0 0 0 0 0 0 0 0 0 127 0" result="hardAlpha"/>
<feOffset dy="4"/>
<feGaussianBlur stdDeviation="2"/>
<feComposite in2="hardAlpha" operator="out"/>
<feColorMatrix type="matrix" values="0 0 0 0 0 0 0 0 0 0 0 0 0 0 0 0 0 0 0.25 0"/>
<feBlend mode="normal" in2="BackgroundImageFix" result="effect1_dropShadow_160_78"/>
<feBlend mode="normal" in="SourceGraphic" in2="effect1_dropShadow_160_78" result="shape"/>
</filter>
<clipPath id="clip0_160_78">
<rect width="42" height="42" fill="white"/>
</clipPath>
</defs>
</svg>
