<svg width="154" height="14" viewBox="0 0 154 14" fill="none" xmlns="http://www.w3.org/2000/svg">
<path d="M8.56055 7.74414H9.84375C9.84375 8.66406 9.58008 9.35547 9.05273 9.81836C8.53125 10.2754 7.82227 10.5039 6.92578 10.5039C6.30469 10.5039 5.76562 10.3604 5.30859 10.0732C4.85742 9.78613 4.50586 9.3877 4.25391 8.87793C4.00781 8.36816 3.88477 7.77637 3.88477 7.10254V6.0918C3.88477 5.41797 4.00781 4.82617 4.25391 4.31641C4.50586 3.80664 4.85742 3.4082 5.30859 3.12109C5.76562 2.83398 6.30469 2.69043 6.92578 2.69043C7.82227 2.69043 8.53418 2.91895 9.06152 3.37598C9.58887 3.83301 9.85254 4.52148 9.85254 5.44141H8.56934C8.56934 4.86133 8.42871 4.44531 8.14746 4.19336C7.87207 3.94141 7.46484 3.81543 6.92578 3.81543C6.53906 3.81543 6.21387 3.91211 5.9502 4.10547C5.68652 4.29883 5.4873 4.56836 5.35254 4.91406C5.21777 5.25391 5.15039 5.64355 5.15039 6.08301V7.10254C5.15039 7.54785 5.21777 7.94336 5.35254 8.28906C5.4873 8.62891 5.68652 8.89551 5.9502 9.08887C6.21387 9.28223 6.53906 9.37891 6.92578 9.37891C7.46484 9.37891 7.87207 9.25293 8.14746 9.00098C8.42285 8.74902 8.56055 8.33008 8.56055 7.74414ZM1.81934 6.59277C1.81934 7.37207 1.9541 8.09863 2.22363 8.77246C2.49316 9.44629 2.86816 10.0352 3.34863 10.5391C3.8291 11.043 4.38574 11.4355 5.01855 11.7168C5.65137 11.998 6.32812 12.1387 7.04883 12.1387C7.76953 12.1387 8.44336 11.998 9.07031 11.7168C9.70312 11.4355 10.2568 11.043 10.7314 10.5391C11.2119 10.0352 11.5869 9.44629 11.8564 8.77246C12.126 8.09863 12.2607 7.37207 12.2607 6.59277C12.2607 5.80762 12.126 5.08105 11.8564 4.41309C11.5869 3.74512 11.2119 3.16211 10.7314 2.66406C10.2568 2.16016 9.70312 1.77051 9.07031 1.49512C8.44336 1.21387 7.76953 1.07324 7.04883 1.07324C6.32812 1.07324 5.65137 1.21387 5.01855 1.49512C4.38574 1.77051 3.8291 2.16016 3.34863 2.66406C2.86816 3.16211 2.49316 3.74512 2.22363 4.41309C1.9541 5.08105 1.81934 5.80762 1.81934 6.59277ZM0.808594 6.59277C0.808594 5.66113 0.969727 4.79688 1.29199 4C1.61426 3.20312 2.0625 2.50879 2.63672 1.91699C3.21094 1.31934 3.87305 0.856445 4.62305 0.52832C5.37891 0.194336 6.1875 0.0273438 7.04883 0.0273438C7.91016 0.0273438 8.71582 0.194336 9.46582 0.52832C10.2217 0.856445 10.8838 1.31934 11.4521 1.91699C12.0264 2.50879 12.4746 3.20312 12.7969 4C13.1191 4.79688 13.2803 5.66113 13.2803 6.59277C13.2803 7.52441 13.1191 8.38867 12.7969 9.18555C12.4746 9.98242 12.0264 10.6826 11.4521 11.2861C10.8838 11.8838 10.2217 12.3496 9.46582 12.6836C8.71582 13.0176 7.91016 13.1846 7.04883 13.1846C6.1875 13.1846 5.37891 13.0176 4.62305 12.6836C3.87305 12.3496 3.21094 11.8838 2.63672 11.2861C2.0625 10.6826 1.61426 9.98242 1.29199 9.18555C0.969727 8.38867 0.808594 7.52441 0.808594 6.59277ZM33.5443 0.203125V13H31.8393L25.3969 3.12988V13H23.7006V0.203125H25.3969L31.8656 10.0996V0.203125H33.5443ZM48.2027 6.19727V7.00586C48.2027 7.9668 48.0826 8.82812 47.8424 9.58984C47.6021 10.3516 47.2564 10.999 46.8053 11.5322C46.3541 12.0654 45.8121 12.4727 45.1793 12.7539C44.5523 13.0352 43.8492 13.1758 43.0699 13.1758C42.3141 13.1758 41.6197 13.0352 40.9869 12.7539C40.36 12.4727 39.815 12.0654 39.3521 11.5322C38.8951 10.999 38.5406 10.3516 38.2887 9.58984C38.0367 8.82812 37.9107 7.9668 37.9107 7.00586V6.19727C37.9107 5.23633 38.0338 4.37793 38.2799 3.62207C38.5318 2.86035 38.8863 2.21289 39.3434 1.67969C39.8004 1.14062 40.3424 0.730469 40.9693 0.449219C41.6021 0.167969 42.2965 0.0273438 43.0523 0.0273438C43.8316 0.0273438 44.5348 0.167969 45.1617 0.449219C45.7945 0.730469 46.3365 1.14062 46.7877 1.67969C47.2447 2.21289 47.5934 2.86035 47.8336 3.62207C48.0797 4.37793 48.2027 5.23633 48.2027 6.19727ZM46.524 7.00586V6.17969C46.524 5.41797 46.4449 4.74414 46.2867 4.1582C46.1344 3.57227 45.9088 3.08008 45.61 2.68164C45.3111 2.2832 44.9449 1.98145 44.5113 1.77637C44.0836 1.57129 43.5973 1.46875 43.0523 1.46875C42.525 1.46875 42.0475 1.57129 41.6197 1.77637C41.1979 1.98145 40.8346 2.2832 40.5299 2.68164C40.2311 3.08008 39.9996 3.57227 39.8355 4.1582C39.6715 4.74414 39.5895 5.41797 39.5895 6.17969V7.00586C39.5895 7.77344 39.6715 8.45312 39.8355 9.04492C39.9996 9.63086 40.234 10.126 40.5387 10.5303C40.8492 10.9287 41.2154 11.2305 41.6373 11.4355C42.065 11.6406 42.5426 11.7432 43.0699 11.7432C43.6207 11.7432 44.11 11.6406 44.5377 11.4355C44.9654 11.2305 45.3258 10.9287 45.6188 10.5303C45.9176 10.126 46.1432 9.63086 46.2955 9.04492C46.4479 8.45312 46.524 7.77344 46.524 7.00586ZM55.909 9.13281L58.449 0.203125H59.6795L58.9676 3.6748L56.2342 13H55.0125L55.909 9.13281ZM53.2811 0.203125L55.3025 8.95703L55.909 13H54.6961L51.5936 0.203125H53.2811ZM62.9666 8.94824L64.9441 0.203125H66.6404L63.5467 13H62.3338L62.9666 8.94824ZM59.8641 0.203125L62.3338 9.13281L63.2303 13H62.0086L59.3719 3.6748L58.6512 0.203125H59.8641ZM80.165 0.203125V13H78.46L72.0176 3.12988V13H70.3213V0.203125H72.0176L78.4863 10.0996V0.203125H80.165ZM89.4357 0.203125V13H87.7658V0.203125H89.4357ZM93.549 0.203125V1.5918H83.6613V0.203125H93.549ZM107.538 0.203125V13H105.868V0.203125H107.538ZM111.651 0.203125V1.5918H101.763V0.203125H111.651ZM123.479 11.6201V13H116.703V11.6201H123.479ZM117.046 0.203125V13H115.349V0.203125H117.046ZM122.583 5.70508V7.08496H116.703V5.70508H122.583ZM123.391 0.203125V1.5918H116.703V0.203125H123.391ZM132.117 1.33691L127.881 13H126.149L131.027 0.203125H132.144L132.117 1.33691ZM135.668 13L131.423 1.33691L131.396 0.203125H132.513L137.408 13H135.668ZM135.448 8.2627V9.65137H128.259V8.2627H135.448ZM141.458 0.203125H143.102L147.294 10.6357L151.478 0.203125H153.13L147.927 13H146.644L141.458 0.203125ZM140.922 0.203125H142.372L142.61 8.00781V13H140.922V0.203125ZM152.207 0.203125H153.657V13H151.97V8.00781L152.207 0.203125Z" fill="white"/>
</svg>
